<svg width="64" height="64" viewBox="0 0 64 64" xmlns="http://www.w3.org/2000/svg">
  <rect width="64" height="64" rx="12" ry="12" fill="#52489c"/>
  <path d="M43.897 36.06c-2.793-1.397-6.125-.563-8.125 1.437-1.343 1.344-2.688 2.688-4.031 4.031-3.75-2.188-7-5.438-9.188-9.188 1.344-1.344 2.688-2.688 4.031-4.031 2-2 2.834-5.332 1.437-8.125-1.103-2.215-3.187-4.295-5.03-5.03-2.793-1.397-6.125-.563-8.125 1.437-1.344 1.344-2.688 2.688-4.031 4.031-.936 1.406-1.625 3.157-2.094 4.843-.523 1.8-.844 3.735-1 5.656C5.67 42.625 11.375 50.25 19.218 54.28c1.96 1.065 4.116 1.842 6.344 2.282 1.937.398 3.935.625 5.906.656 2.024.031 4.016-.094 5.97-.344 1.815-.281 3.645-.625 5.406-1.156 1.728-.514 3.333-1.242 4.75-2.094 1.344-1.344 2.688-2.688 4.031-4.031 2-2 2.834-5.332 1.437-8.125-.922-1.877-2.828-3.969-4.844-5.03z" fill="#fff"/>
</svg>
